<svg width="56" height="56" viewBox="0 0 56 56" fill="none" xmlns="http://www.w3.org/2000/svg">
<rect x="0.0839844" y="0.69873" width="55.0279" height="55.0279" rx="27.5139" fill="#FE9B64" fill-opacity="0.54"/>
<path fill-rule="evenodd" clip-rule="evenodd" d="M20.4631 21.0772V20.8972C20.4631 17.6408 22.6677 14.7975 25.8215 13.9865C26.9872 13.6868 28.2098 13.6868 29.3755 13.9865C32.5293 14.7975 34.734 17.6408 34.734 20.8972V21.0772H36.9889C37.8471 21.0772 38.5754 21.7066 38.6999 22.5557L39.0283 24.7977C39.6751 29.2118 39.6751 33.6967 39.0283 38.1108C38.716 40.2425 36.9971 41.8905 34.8541 42.1127L33.9094 42.2107C29.7134 42.6458 25.4836 42.6458 21.2876 42.2107L20.3429 42.1127C18.1999 41.8905 16.481 40.2425 16.1687 38.1108C15.5219 33.6967 15.5219 29.2118 16.1687 24.7977L16.4972 22.5557C16.6216 21.7066 17.3499 21.0772 18.2081 21.0772H20.4631ZM26.3827 16.1688C27.1803 15.9637 28.0168 15.9637 28.8144 16.1688C30.9722 16.7237 32.4807 18.6691 32.4807 20.8972V21.0772H22.7164V20.8972C22.7164 18.6691 24.2248 16.7237 26.3827 16.1688ZM20.4631 23.3305V26.7105C20.4631 27.3327 20.9675 27.8371 21.5897 27.8371C22.212 27.8371 22.7164 27.3327 22.7164 26.7105V23.3305H32.4807V26.7105C32.4807 27.3327 32.9851 27.8371 33.6073 27.8371C34.2295 27.8371 34.734 27.3327 34.734 26.7105V23.3305H36.536L36.7989 25.1244C37.4139 29.3219 37.4139 33.5866 36.7989 37.7842C36.636 38.896 35.7394 39.7555 34.6217 39.8714L33.677 39.9694C29.6355 40.3885 25.5615 40.3885 21.52 39.9694L20.5753 39.8714C19.4576 39.7555 18.5611 38.896 18.3982 37.7842C17.7831 33.5866 17.7831 29.3219 18.3982 25.1244L18.661 23.3305H20.4631Z" fill="#F26414"/>
</svg>
