<svg width="56" height="56" viewBox="0 0 56 56" fill="none" xmlns="http://www.w3.org/2000/svg">
<rect x="0.825195" y="0.69873" width="55.0279" height="55.0279" rx="27.5139" fill="#FE9B64" fill-opacity="0.54"/>
<path d="M15.7686 15.6416H18.0385C19.4474 15.6416 20.5562 16.8548 20.4388 18.2507L19.356 31.2439C19.1734 33.3703 20.8563 35.1966 22.9957 35.1966H36.8891C38.7676 35.1966 40.4113 33.6573 40.5548 31.7918L41.2593 22.0078C41.4158 19.8422 39.7721 18.0811 37.5935 18.0811H20.7519" stroke="#F26414" stroke-width="1.95681" stroke-miterlimit="10" stroke-linecap="round" stroke-linejoin="round"/>
<path d="M34.3582 41.7323C35.2588 41.7323 35.9889 41.0022 35.9889 40.1016C35.9889 39.201 35.2588 38.4709 34.3582 38.4709C33.4576 38.4709 32.7275 39.201 32.7275 40.1016C32.7275 41.0022 33.4576 41.7323 34.3582 41.7323Z" stroke="#F26414" stroke-width="1.95681" stroke-miterlimit="10" stroke-linecap="round" stroke-linejoin="round"/>
<path d="M23.9217 41.7323C24.8223 41.7323 25.5524 41.0022 25.5524 40.1016C25.5524 39.201 24.8223 38.4709 23.9217 38.4709C23.0211 38.4709 22.291 39.201 22.291 40.1016C22.291 41.0022 23.0211 41.7323 23.9217 41.7323Z" stroke="#F26414" stroke-width="1.95681" stroke-miterlimit="10" stroke-linecap="round" stroke-linejoin="round"/>
<path d="M24.9004 23.4688H40.5549" stroke="#F26414" stroke-width="1.95681" stroke-miterlimit="10" stroke-linecap="round" stroke-linejoin="round"/>
</svg>
