<svg width="37" height="38" viewBox="0 0 37 38" fill="none" xmlns="http://www.w3.org/2000/svg">
<rect x="0.500977" y="0.802248" width="35.6854" height="36.5775" rx="17.8427" fill="#FEC9AB"/>
<path d="M20.1853 25.2234C19.9947 25.2234 19.804 25.1531 19.6534 25.0026L16.8833 22.2325C16.5923 21.9414 16.5923 21.4597 16.8833 21.1686C17.1744 20.8775 17.6561 20.8775 17.9472 21.1686L20.7173 23.9387C21.0083 24.2297 21.0083 24.7115 20.7173 25.0026C20.5768 25.1531 20.3861 25.2234 20.1853 25.2234Z" fill="#FB0B0B"/>
<path d="M17.3948 25.2535C17.2041 25.2535 17.0134 25.1832 16.8628 25.0327C16.5718 24.7416 16.5718 24.2599 16.8628 23.9688L19.6329 21.1987C19.924 20.9077 20.4057 20.9077 20.6968 21.1987C20.9878 21.4898 20.9878 21.9715 20.6968 22.2626L17.9267 25.0327C17.7761 25.1832 17.5855 25.2535 17.3948 25.2535Z" fill="#FB0B0B"/>
<path d="M11.9553 13.4505C11.7646 13.4505 11.5639 13.3702 11.4234 13.2297C11.1323 12.9386 11.1323 12.4569 11.4234 12.1658L15.0666 8.52258C15.3577 8.23152 15.8394 8.23152 16.1305 8.52258C16.4216 8.81364 16.4216 9.29539 16.1305 9.58645L12.4872 13.2297C12.3367 13.3702 12.146 13.4505 11.9553 13.4505Z" fill="#FB0B0B"/>
<path d="M25.6249 13.4505C25.4342 13.4505 25.2435 13.3803 25.093 13.2297L21.4497 9.58645C21.1587 9.29539 21.1587 8.81364 21.4497 8.52258C21.7408 8.23152 22.2226 8.23152 22.5136 8.52258L26.1569 12.1658C26.4479 12.4569 26.4479 12.9386 26.1569 13.2297C26.0164 13.3702 25.8156 13.4505 25.6249 13.4505Z" fill="#FB0B0B"/>
<path d="M27.0302 17.6859C26.96 17.6859 26.8897 17.6859 26.8194 17.6859H26.5886H10.761C10.0585 17.696 9.25554 17.696 8.67342 17.1139C8.21174 16.6622 8.00098 15.9597 8.00098 14.9259C8.00098 12.1659 10.0183 12.1659 10.9818 12.1659H26.5986C27.5621 12.1659 29.5795 12.1659 29.5795 14.9259C29.5795 15.9697 29.3687 16.6622 28.907 17.1139C28.3851 17.6358 27.6826 17.6859 27.0302 17.6859ZM10.9818 16.1805H26.8295C27.2811 16.1905 27.7027 16.1905 27.8432 16.05C27.9134 15.9797 28.064 15.7389 28.064 14.9259C28.064 13.7918 27.783 13.6713 26.5886 13.6713H10.9818C9.78748 13.6713 9.50645 13.7918 9.50645 14.9259C9.50645 15.7389 9.66704 15.9797 9.72726 16.05C9.86777 16.1805 10.2993 16.1805 10.7409 16.1805H10.9818Z" fill="#FB0B0B"/>
<path d="M21.6899 29.8803H15.6379C12.0449 29.8803 11.2419 27.7425 10.9308 25.8858L9.51565 17.2042C9.4454 16.7927 9.72642 16.4113 10.1379 16.341C10.5494 16.2708 10.9308 16.5518 11.0011 16.9633L12.4162 25.6348C12.7073 27.4113 13.3095 28.3748 15.6379 28.3748H21.6899C24.2693 28.3748 24.5604 27.4715 24.8916 25.7252L26.5777 16.9432C26.658 16.5317 27.0494 16.2607 27.4609 16.3511C27.8724 16.4314 28.1334 16.8228 28.0531 17.2343L26.367 26.0162C25.9755 28.0536 25.3232 29.8803 21.6899 29.8803Z" fill="#FB0B0B"/>
</svg>
